<?xml version="1.0" encoding="utf-8"?>
<!-- Generator: Adobe Illustrator 13.0.0, SVG Export Plug-In . SVG Version: 6.00 Build 14948)  -->
<!DOCTYPE svg PUBLIC "-//W3C//DTD SVG 1.1//EN" "http://www.w3.org/Graphics/SVG/1.1/DTD/svg11.dtd">
<svg version="1.1" id="Layer_1" zoomAndPan="disable"
	 xmlns="http://www.w3.org/2000/svg" xmlns:xlink="http://www.w3.org/1999/xlink" x="0px" y="0px" width="1000px" height="500px"
	 viewBox="0 0 1000 500" style="enable-background:new 0 0 1000 500;" xml:space="preserve">
<style type="text/css">
<![CDATA[
	.st0{fill:#ffffff;}
]]>
</style>
<line class="st0" x1="1184" y1="468" x2="-916" y2="218"/>
<line class="st0" x1="1184" y1="468" x2="-916" y2="-132"/>
<line class="st0" x1="1184" y1="468" x2="-916" y2="-532"/>
<line class="st0" x1="1184" y1="468" x2="-166" y2="-532"/>
<line class="st0" x1="1184" y1="468" x2="384" y2="-532"/>
<line class="st0" x1="1184" y1="468" x2="834" y2="-532"/>
<line class="st0" x1="1834" y1="-32" x2="834" y2="468"/>
<line class="st0" x1="1584" y1="-32" x2="584" y2="468"/>
<line class="st0" x1="1234" y1="-32" x2="234" y2="468"/>
<line class="st0" x1="784" y1="-32" x2="-216" y2="468"/>
<line class="st0" x1="234" y1="-32" x2="-766" y2="468"/>
<line class="st0" x1="-67.5" y1="-681.5" x2="2336.5" y2="-170.5"/>
<line class="st0" x1="652.5" y1="490.5" x2="1588.5" y2="1004.101"/>
<line class="st0" x1="652.5" y1="490.5" x2="1588.5" y2="1346.5"/>
<line class="st0" x1="652.5" y1="490.5" x2="1254.214" y2="1346.5"/>
<line class="st0" x1="652.5" y1="490.5" x2="1009.07" y2="1346.5"/>
<line class="st0" x1="652.5" y1="490.5" x2="808.5" y2="1346.5"/>
<line class="st0" x1="1967" y1="214" x2="967" y2="714"/>
<line class="st0" x1="1717" y1="214" x2="717" y2="714"/>
<line class="st0" x1="1367" y1="214" x2="367" y2="714"/>
<line class="st0" x1="917" y1="214" x2="-83" y2="714"/>
<line class="st0" x1="367" y1="214" x2="-633" y2="714"/>
<line class="st0" x1="2104.5" y1="-285.5" x2="-1432" y2="31.5"/>
<line class="st0" x1="2104.5" y1="-285.5" x2="-1432" y2="475.3"/>
<line class="st0" x1="2104.5" y1="-285.5" x2="-1432" y2="982.5"/>
<line class="st0" x1="2104.5" y1="-285.5" x2="-168.974" y2="982.5"/>
<line class="st0" x1="2104.5" y1="-285.5" x2="757.26" y2="982.5"/>
<line class="st0" x1="2104.5" y1="-285.5" x2="1515.062" y2="982.5"/>
<line class="st0" x1="-815.5" y1="946.5" x2="1498" y2="683"/>
<line class="st0" x1="-815.5" y1="946.5" x2="1498" y2="314.1"/>
<line class="st0" x1="-815.5" y1="946.5" x2="1498" y2="-107.5"/>
<line class="st0" x1="-815.5" y1="946.5" x2="671.756" y2="-107.5"/>
<line class="st0" x1="-815.5" y1="946.5" x2="65.835" y2="-107.5"/>
<line class="st0" x1="-815.5" y1="946.5" x2="-429.903" y2="-107.5"/>
</svg>
