<?xml version="1.0"?><svg width="1600" height="1200" xmlns="http://www.w3.org/2000/svg">
 <title>snowflake1</title>
 <metadata id="metadata7">image/svg+xml</metadata>
 <g>
  <title>Layer 1</title>
  <g id="svg_1">
   <path id="path3166" d="m339.808685,934.233643l135.998077,80.588684l5.499176,156.696472l-172.756531,86.010986l58.445801,131.657593l205.876129,-112.347534l5.249146,182.016724l-167.933594,105.616821l71.408417,108.896606l170.750763,-116.94873l156.975037,108.161133l76.768066,-108.702759l-145.465637,-92.148682l-1.050171,-179.150513l181.232788,100.247314l70.197998,-111.147583l-156.351013,-91.421753l6.456055,-151.595581l138.041016,-75.03833" stroke-miterlimit="4" stroke-width="12" stroke="#6D8383" fill-rule="evenodd" fill="#364141"/>
   <path d="m1009.272461,199.232864l-135.998047,-80.588707l-5.499146,-156.696602l172.75647,-86.010979l-58.445679,-131.657463l-205.87616,112.347382l-5.249023,-182.016541l167.933411,-105.616669l-71.408447,-108.896729l-170.75061,116.948853l-156.974976,-108.161377l-76.76828,108.702545l145.465729,92.148987l1.05011,179.150528l-181.232666,-100.247574l-70.198029,111.147949l156.351105,91.421551l-4.084656,151.174961l-125.096375,65.520554" id="path3160" stroke-miterlimit="4" stroke-width="12" stroke="#6D8383" fill-rule="evenodd" fill="#364141"/>
   <path id="path3170" d="m518.167236,97.999031l-138.991577,75.491615l-140.786911,-73.666512l10.60907,-190.086708l-145.202759,-16.06929l-3.968872,231.452469l-162.966866,-86.539268l-9.073433,-195.783607l-131.633759,6.347321l17.647446,203.848167l-173.769302,79.564735l57.37442,119.710312l153.90892,-77.771988l158.342949,88.680939l-178.926689,104.174255l62.813683,115.339142l158.710819,-87.403229l134.395466,80.892883l-5.254425,152.556976" stroke-miterlimit="4" stroke-width="12" stroke="#6D8383" fill-rule="evenodd" fill="#364141"/>
   <path d="m830.914063,1035.467651l138.991577,-75.49176l140.786865,73.666565l-10.609009,190.086548l145.202759,16.069336l3.968872,-231.452332l162.966797,86.539246l9.073486,195.783325l131.633789,-6.347168l-17.647461,-203.848022l173.769287,-79.564758l-57.37439,-119.71051l-153.908936,77.772339l-158.34314,-88.681519l178.92688,-104.173889l-62.813843,-115.339233l-158.710938,87.40332l-132.024048,-81.313599l3.970947,-159.550873" id="path3164" stroke-miterlimit="4" stroke-width="12" stroke="#6D8383" fill-rule="evenodd" fill="#364141"/>
   <path d="m163.101166,278.322601l1038.453033,614.981171" id="path3172" stroke-miterlimit="4" stroke-linecap="round" stroke-width="12" stroke="#6D8383" fill-rule="evenodd" fill="none"/>
   <path id="path3162" d="m1165.645996,667.967285l2.993408,-156.080536l135.287842,-83.03009l162.147461,104.075897l86.756958,-115.588165l-201.907471,-119.105194l157.718018,-95.477295l177.006958,90.166901l60.225464,-115.244125l-188.398315,-86.899315l16.794312,-187.726067l-134.1427,-11.00782l-8.443604,169.921139l-157.29248,90.469433l-2.305786,-204.421654l-133.011719,-4.191364l-2.359985,178.824924l-143.650757,68.791878l-128.899658,-83.022148" stroke-miterlimit="4" stroke-width="12" stroke="#6D8383" fill-rule="evenodd" fill="#364141"/>
   <path d="m688.12854,-36.274937l-33.140137,1233.553623" id="path3158" stroke-miterlimit="4" stroke-linecap="round" stroke-width="12" stroke="#6D8383" fill-rule="evenodd" fill="none"/>
   <path d="m183.435349,465.499298l-2.993439,156.080414l-135.287994,83.030212l-162.147148,-104.075867l-86.757195,115.588196l201.907376,119.105042l-157.717922,95.477173l-177.006927,-90.166687l-60.225311,115.244019l188.398102,86.899475l-16.79425,187.72583l134.142685,11.008057l8.443375,-169.921265l157.292694,-90.46936l2.305901,204.421387l133.011711,4.191162l2.360001,-178.824463l137.624084,-74.944641l126.100555,81.111877" id="path3168" stroke-miterlimit="4" stroke-width="12" stroke="#6D8383" fill-rule="evenodd" fill="#364141"/>
   <path d="m146.763046,883.022217l1071.128922,-594.417969" id="path3174" stroke-miterlimit="4" stroke-linecap="round" stroke-width="12" stroke="#6D8383" fill-rule="evenodd" fill="none"/>
   <path id="path3156" d="m1026.028076,790.795715l-367.383606,192.394165l-353.175934,-216.585815l14.207611,-408.980255l367.383423,-192.394089l353.175537,216.585831l-14.207031,408.980164z" stroke-miterlimit="4" stroke-width="12" stroke="#6D8383" fill="#364141"/>
   <path id="path2384" d="m880.258301,690.32019l-211.614502,116.537964l-208.467926,-121.89563l3.146423,-238.43338l211.614471,-116.537659l208.467896,121.89563l-3.146362,238.433075z" stroke-miterlimit="4" stroke-width="12" stroke="#6D8383" fill="#364141"/>
  </g>
 </g>
</svg>